<svg width="18" height="18" viewBox="0 0 18 18" fill="none" xmlns="http://www.w3.org/2000/svg">
<g clip-path="url(#clip0_4577_16453)">
<path d="M9.00003 17.4375C7.33125 17.4375 5.69994 16.9427 4.31239 16.0156C2.92485 15.0884 1.84339 13.7707 1.20477 12.2289C0.566155 10.6872 0.399064 8.99065 0.724629 7.35394C1.05019 5.71722 1.85379 4.2138 3.0338 3.03379C4.61615 1.45145 6.76226 0.5625 9.00003 0.5625C11.2378 0.5625 13.3839 1.45145 14.9663 3.03379C16.5486 4.61613 17.4376 6.76225 17.4376 9.00002C17.4376 11.2378 16.5486 13.3839 14.9663 14.9662C14.1846 15.7522 13.2548 16.3753 12.2307 16.7995C11.2066 17.2237 10.1085 17.4405 9.00003 17.4375ZM9.00003 1.68752C4.96792 1.68752 1.68753 4.96791 1.68753 9.00002C1.68753 13.0321 4.96792 16.3125 9.00003 16.3125C13.0321 16.3125 16.3125 13.0321 16.3125 9.00002C16.3125 4.96791 13.0321 1.68752 9.00003 1.68752Z" fill="white"/>
<path d="M7.99076 13.3345L7.19531 12.5391L10.735 8.99929L7.19531 5.45951L7.99076 4.66406L12.326 8.99929L7.99076 13.3345Z" fill="white"/>
</g>
<defs>
<clipPath id="clip0_4577_16453">
<rect width="18" height="18" fill="white"/>
</clipPath>
</defs>
</svg>
